<?xml version="1.0" encoding="UTF-8"?>
<svg version="1.1" xmlns="http://www.w3.org/2000/svg" width="750" height="713">
<path d="M0 0 C9.79526467 1.95905293 18.31441533 10.04195123 26 16 C26.57331055 16.44037598 27.14662109 16.88075195 27.73730469 17.33447266 C34.61284553 22.61800062 41.30899773 27.99954471 47.69140625 33.87890625 C50.00725063 36.00666175 52.37380437 38.06510329 54.75 40.125 C58.02391594 43.02426006 60.89783233 46.04637596 63.67578125 49.41796875 C65.63886053 51.76324045 67.81193266 53.86530016 70 56 C74.23415425 60.13212644 78.26297978 64.36104796 82.125 68.84375 C84.17359094 71.19962958 86.27203002 73.5050746 88.375 75.8125 C94.32081594 82.40658207 99.99082592 89.21929511 105.25 96.375 C106.87855961 98.58200975 108.42280425 100.42280425 110.375 102.375 C114.2887634 106.2887634 117.58339525 110.65211336 121 115 C121.98612769 116.23115125 122.97315503 117.46158227 123.9609375 118.69140625 C124.97416163 119.96077525 125.98718385 121.23030545 127 122.5 C127.49322754 123.11157959 127.98645508 123.72315918 128.49462891 124.35327148 C132 128.77311417 132 128.77311417 132 131 C132.66 131 133.32 131 134 131 C135.26953125 132.40625 135.26953125 132.40625 136.8125 134.5 C140.19537687 138.98002613 143.69642487 143.34302981 147.25 147.6875 C152.79869424 154.49158731 158.25347412 161.36273933 163.65722656 168.28222656 C165.93233902 171.19271588 168.21657719 174.09602916 170.5 177 C173.23096674 180.47314029 175.96027528 183.94748909 178.6796875 187.4296875 C184.09783134 194.35987148 189.59542684 201.21810441 195.15917969 208.03198242 C198.70089641 212.37715388 202.18113295 216.76453066 205.625 221.1875 C211.88534707 229.21083138 218.48678444 236.93159427 225.13671875 244.6328125 C225.90242188 245.52504517 225.90242188 245.52504517 226.68359375 246.43530273 C227.66758072 247.5817434 228.65571113 248.72464396 229.6484375 249.86352539 C233 253.77470546 233 253.77470546 233 256 C233.66 256 234.32 256 235 256 C236 257.66666667 237 259.33333333 238 261 C239.12525998 262.15835586 240.25562229 263.31261412 241.421875 264.4296875 C246.31281142 269.29641137 250.79566903 274.59992246 255.3125 279.8125 C257.51362175 282.35185558 259.76719481 284.83098531 262.06640625 287.28125 C262.61063232 287.86285889 263.1548584 288.44446777 263.71557617 289.04370117 C264.80661406 290.20665092 265.90172536 291.3657949 267.0012207 292.52075195 C269.32306684 294.99751196 270.91305971 296.73917914 272 300 C272.66 300.33 273.32 300.66 274 301 C274.66 301.33 275.32 301.66 276 302 C276.33 302.99 276.66 303.98 277 305 C277.86625 305.4021875 277.86625 305.4021875 278.75 305.8125 C281.42406504 307.22381211 282.84837486 309.12487171 284.6953125 311.4765625 C286.12943367 313.24711001 286.12943367 313.24711001 288.8125 315.25 C289.534375 315.8275 290.25625 316.405 291 317 C291 317.66 291 318.32 291 319 C291.639375 319.268125 292.27875 319.53625 292.9375 319.8125 C295 321 295 321 296 324 C296.66 324.33 297.32 324.66 298 325 C298.66 325.33 299.32 325.66 300 326 C300.33 326.99 300.66 327.98 301 329 C302.33096931 329.6713739 303.66480449 330.33707076 305 331 C306.626986 332.53844254 308.20648044 334.12782977 309.75 335.75 C313.47082083 339.57018994 317.19509314 342.84804751 321.6015625 345.84375 C322.06304687 346.2253125 322.52453125 346.606875 323 347 C323 347.66 323 348.32 323 349 C323.61875 349.309375 324.2375 349.61875 324.875 349.9375 C326.25 350.625 327.625 351.3125 329 352 C329 352.66 329 353.32 329 354 C329.79664063 354.34224609 329.79664063 354.34224609 330.609375 354.69140625 C333.77583887 356.42468304 336.45981841 358.66917478 339.25 360.9375 C344.54725551 365.17473718 349.96469538 369.16852442 355.5625 373 C356.56168457 373.68437134 356.56168457 373.68437134 357.58105469 374.38256836 C360.33746214 376.25318769 363.06721614 378.03825741 365.96484375 379.6875 C366.63644531 380.120625 367.30804688 380.55375 368 381 C368 381.66 368 382.32 368 383 C368.86882812 383.25007813 369.73765625 383.50015625 370.6328125 383.7578125 C374.17695498 385.06528037 376.79088709 386.70712222 379.875 388.875 C383.75553708 391.59655 387.60397111 393.88216682 391.85351562 395.94628906 C394.11121352 397.05459481 396.33131115 398.21943936 398.55078125 399.40234375 C414.449755 408.07258881 414.449755 408.07258881 431.41796875 414.2265625 C434.25867255 415.07748437 436.9981731 416.13717959 439.76782227 417.19287109 C442.11524678 418.04167186 444.47656117 418.78222299 446.8671875 419.5 C447.68960937 419.7475 448.51203125 419.995 449.359375 420.25 C451.05799476 420.7564208 452.75858659 421.2562668 454.4609375 421.75 C455.68296875 422.12125 455.68296875 422.12125 456.9296875 422.5 C458.03159424 422.82484375 458.03159424 422.82484375 459.15576172 423.15625 C461 424 461 424 463 427 C420.15580848 457.34796899 360.45474989 471.20776819 308.453125 462.46289062 C298.89104921 460.65858174 289.43313157 458.3783295 280 456 C279.23010742 455.80615723 278.46021484 455.61231445 277.66699219 455.41259766 C269.44822348 453.30323297 261.72480504 450.49610024 254 447 C253.35659668 446.71108887 252.71319336 446.42217773 252.05029297 446.12451172 C234.81319756 438.34743776 218.86038881 429.04705869 203.75 417.625 C203.17628662 417.19590332 202.60257324 416.76680664 202.01147461 416.32470703 C200.63506997 415.265609 199.31171812 414.13823282 198 413 C198 412.34 198 411.68 198 411 C197.38125 410.690625 196.7625 410.38125 196.125 410.0625 C194.75 409.375 193.375 408.6875 192 408 C192 407.34 192 406.68 192 406 C191.360625 405.731875 190.72125 405.46375 190.0625 405.1875 C188 404 188 404 187 401 C186.34 400.67 185.68 400.34 185 400 C183 399 183 399 182 396 C181.01 395.67 180.02 395.34 179 395 C153 367.59166667 153 367.59166667 153 357 C152.34 357 151.68 357 151 357 C140.73747529 336.97828967 132.00840865 316.3758668 123.47119141 295.57275391 C121.25268422 290.18516112 119.00036614 284.81184203 116.75 279.4375 C113.67622419 272.09050032 110.67887453 264.71838855 107.75 257.3125 C105.21867053 250.91510613 102.49804023 244.66612827 99.5546875 238.4453125 C97.2271598 233.28732398 95.17382161 228.02657383 93.09277344 222.76538086 C90.57377107 216.40567004 87.96044972 210.09306469 85.28833008 203.79638672 C83.16736772 198.79028044 81.07498642 193.77303295 79.00390625 188.74609375 C78.74126984 188.10906021 78.47863342 187.47202667 78.20803833 186.81568909 C76.90282254 183.64904488 75.59980084 180.48153721 74.29980469 177.31274414 C71.71872002 171.04764623 69.04884299 164.84500598 66.21704102 158.68945312 C64.05925762 153.92111975 62.06501889 149.08511162 60.0625 144.25 C59.62357422 143.19433838 59.18464844 142.13867676 58.73242188 141.05102539 C56.44245748 135.53033391 54.19060856 129.99827557 52 124.4375 C49.09008654 117.09264762 45.92075461 109.86695389 42.75097656 102.63110352 C40.17556637 96.74118901 37.66834893 90.83102443 35.25 84.875 C33.26204787 79.98034258 31.1842589 75.15879672 28.9375 70.375 C25.95817309 64.02225531 23.37014449 57.53498863 20.79736328 51.01074219 C16.96247476 41.34015374 12.96317891 31.77229598 8.5546875 22.34765625 C6.70852048 18.37236696 4.90427007 14.38060875 3.125 10.375 C2.81433594 9.68720459 2.50367188 8.99940918 2.18359375 8.29077148 C0.88682515 5.35433874 0 3.24700799 0 0 Z " fill="#000000" transform="translate(52,221)"/>
<path d="M0 0 C0.66 0.33 1.32 0.66 2 1 C0.08223613 7.76641604 -2.16472009 14.29862868 -4.8125 20.8125 C-5.34351318 22.12976074 -5.34351318 22.12976074 -5.88525391 23.47363281 C-8.19920449 29.16484189 -10.68905859 34.74313197 -13.31640625 40.296875 C-16.1091973 46.32806012 -18.57408516 52.50671906 -21.11450195 58.64697266 C-23.8808252 65.32850859 -26.69606643 71.98584792 -29.5625 78.625 C-33.44140019 87.62257272 -37.1718206 96.67645003 -40.859375 105.75390625 C-44.85809277 115.57358937 -48.99938961 125.31433785 -53.3125 135 C-56.96931677 143.26169714 -60.48766344 151.55322005 -63.79345703 159.9609375 C-68.25263504 171.25842126 -73.02165462 182.43015415 -77.7381134 193.62199402 C-79.3882034 197.53916532 -81.0257693 201.46134963 -82.65625 205.38671875 C-84.34788612 209.45274142 -86.07241206 213.50215062 -87.82714844 217.54125977 C-93.87344057 231.47799309 -99.58878729 245.55192493 -105.3377533 259.61303711 C-114.10058265 281.04399745 -114.10058265 281.04399745 -118.375 290.6875 C-120.86012091 296.3195738 -123.2419158 301.98580472 -125.5625 307.6875 C-128.23653676 314.23194976 -131.05555968 320.6819481 -134.08984375 327.06933594 C-135.1673904 329.35507599 -136.22350158 331.65034522 -137.28125 333.9453125 C-159.69951333 382.25075654 -159.69951333 382.25075654 -176 392 C-209.11964674 395.45650962 -251.17380004 373.9813285 -278 357 C-279.0725 356.33613281 -280.145 355.67226563 -281.25 354.98828125 C-287.42808966 351.12954371 -293.46177386 347.09088767 -299.3125 342.75 C-299.86977783 342.35006836 -300.42705566 341.95013672 -301.0012207 341.53808594 C-303.59161447 339.56763988 -304.89084543 338.35687063 -305.85546875 335.203125 C-305.90316406 334.47609375 -305.95085937 333.7490625 -306 333 C-305.14277344 332.3709375 -304.28554688 331.741875 -303.40234375 331.09375 C-297.43889885 326.65123631 -291.96602231 322.41739142 -287.3671875 316.49609375 C-286 315 -286 315 -283 314 C-282.566875 313.13375 -282.566875 313.13375 -282.125 312.25 C-280.61288237 309.22576473 -278.41422484 307.35808007 -276 305 C-275.0935705 303.9045152 -274.19753541 302.80034038 -273.3125 301.6875 C-272.549375 300.800625 -271.78625 299.91375 -271 299 C-270.34 299 -269.68 299 -269 299 C-268.76410156 298.43539063 -268.52820313 297.87078125 -268.28515625 297.2890625 C-266.70765058 294.47928037 -264.75948714 292.60380949 -262.4375 290.375 C-259.30957946 287.48929319 -259.30957946 287.48929319 -257 284 C-256.34 284 -255.68 284 -255 284 C-254.731875 283.360625 -254.46375 282.72125 -254.1875 282.0625 C-253 280 -253 280 -250 279 C-249.32018894 277.67332026 -248.65651178 276.33836262 -248 275 C-246.43658859 273.1930838 -244.82717518 271.42550653 -243.1875 269.6875 C-240.32840195 266.60246748 -237.56753732 263.59588776 -235.1875 260.125 C-233.01602088 257.02288697 -230.67703013 254.66927062 -228 252 C-226.20301446 249.97469792 -224.4328873 247.94334162 -222.6875 245.875 C-222.21256104 245.31530518 -221.73762207 244.75561035 -221.24829102 244.17895508 C-217.41425017 239.60970707 -213.93430573 234.86891542 -210.55859375 229.94921875 C-210.04425781 229.30597656 -209.52992188 228.66273438 -209 228 C-208.34 228 -207.68 228 -207 228 C-206.731875 227.195625 -206.46375 226.39125 -206.1875 225.5625 C-205.795625 224.716875 -205.40375 223.87125 -205 223 C-204.01 222.67 -203.02 222.34 -202 222 C-201.67 221.175 -201.34 220.35 -201 219.5 C-200.67 218.675 -200.34 217.85 -200 217 C-199.01 216.67 -198.02 216.34 -197 216 C-196.31258378 214.34178374 -195.64861757 212.67377342 -195 211 C-193.36328125 209.02734375 -193.36328125 209.02734375 -191.3125 206.9375 C-184.41258385 199.52065202 -178.59763475 191.25015713 -172.58349609 183.11474609 C-170.77509485 180.69964101 -168.89162584 178.3502018 -167 176 C-166.34 175.01 -165.68 174.02 -165 173 C-164.34 173 -163.68 173 -163 173 C-162.6596875 171.97326172 -162.6596875 171.97326172 -162.3125 170.92578125 C-160.66571281 167.25481814 -158.46488786 164.34607773 -156 161.1875 C-155.54882812 160.59001953 -155.09765625 159.99253906 -154.6328125 159.37695312 C-153.47362397 157.87652419 -152.24186081 156.43275496 -151 155 C-150.34 155 -149.68 155 -149 155 C-148.78601563 154.31164062 -148.57203125 153.62328125 -148.3515625 152.9140625 C-146.59806364 149.13339733 -144.145344 146.45382279 -141.375 143.375 C-136.71435329 138.09442978 -132.49910404 132.73497511 -128.5234375 126.9140625 C-128.02070312 126.28242188 -127.51796875 125.65078125 -127 125 C-126.34 125 -125.68 125 -125 125 C-124.5978125 123.7934375 -124.5978125 123.7934375 -124.1875 122.5625 C-123.795625 121.716875 -123.40375 120.87125 -123 120 C-122.01 119.67 -121.02 119.34 -120 119 C-119.67 118.175 -119.34 117.35 -119 116.5 C-118.67 115.675 -118.34 114.85 -118 114 C-117.01 113.67 -116.02 113.34 -115 113 C-114.31955404 111.33891134 -113.65510837 109.67124362 -113 108 C-111.1171875 105.67578125 -111.1171875 105.67578125 -108.875 103.3125 C-103.70392275 97.73274084 -98.7638296 91.95025401 -94.3984375 85.7109375 C-93.93695312 85.14632812 -93.47546875 84.58171875 -93 84 C-92.34 84 -91.68 84 -91 84 C-90.7525 83.43410156 -90.505 82.86820312 -90.25 82.28515625 C-88.79302124 79.62161696 -87.05895696 77.66926227 -85 75.4375 C-84.2059375 74.56996094 -83.411875 73.70242188 -82.59375 72.80859375 C-81.7378125 71.88175781 -80.881875 70.95492187 -80 70 C-78.61253408 68.49152275 -77.22683086 66.98149326 -75.84375 65.46899414 C-74.55493187 64.06005179 -73.26193181 62.65493827 -71.96875 61.25 C-69.97743103 59.16521364 -69.97743103 59.16521364 -69 57 C-68.34 57 -67.68 57 -67 57 C-66.63648438 56.14341797 -66.63648438 56.14341797 -66.265625 55.26953125 C-64.76380708 52.57645652 -62.97573537 50.81860376 -60.75 48.6875 C-58.00031891 46.00798621 -55.37078926 43.34455136 -52.9375 40.375 C-49.70303038 36.50632065 -46.05516029 33.00483724 -42 30 C-41.34 30 -40.68 30 -40 30 C-40 29.34 -40 28.68 -40 28 C-33.96558109 22.18714722 -26.86802096 17.36264861 -20.0625 12.5 C-19.329104 11.97164551 -18.59570801 11.44329102 -17.84008789 10.89892578 C-17.14133545 10.40634277 -16.44258301 9.91375977 -15.72265625 9.40625 C-15.10140869 8.96603516 -14.48016113 8.52582031 -13.84008789 8.07226562 C-11.90076316 6.94217219 -10.19254613 6.43372373 -8 6 C-8 5.34 -8 4.68 -8 4 C-6.71349294 3.30289269 -5.42059335 2.61757124 -4.125 1.9375 C-3.40570312 1.55464844 -2.68640625 1.17179688 -1.9453125 0.77734375 C-1.30335938 0.52082031 -0.66140625 0.26429688 0 0 Z " fill="#000000" transform="translate(729,222)"/>
<path d="M0 0 C19.29735658 8.65200163 34.64876129 39.73192103 44.53320312 57.39013672 C46.10527818 60.18732087 47.69933223 62.97119455 49.296875 65.75390625 C57.76178821 80.53732044 65.403185 95.5321095 72.64770508 110.94116211 C75.00227733 115.93887943 77.43521732 120.88737219 79.9375 125.8125 C84.95187703 135.72320962 89.45514931 145.86786857 94 156 C94.74988373 157.66932307 95.49987958 159.33859578 96.25 161.0078125 C96.61174316 161.81283203 96.97348633 162.61785156 97.34619141 163.44726562 C107.75849774 186.82752908 107.75849774 186.82752908 118.94165039 209.8425293 C121.97730873 215.83317167 124.73132076 221.94489354 127.5 228.0625 C131.1211839 236.0470711 134.91321315 243.85220399 139.125 251.5390625 C141.06206989 255.11457067 142.88690742 258.72976223 144.6875 262.375 C155.70594447 284.73643262 155.70594447 284.73643262 168.30078125 306.22265625 C170.09796115 309.16011581 171.6209995 312.15307352 173.125 315.25 C175.22234029 319.55683782 177.51622242 323.47038888 180.2421875 327.40234375 C182.55041978 330.81339812 184.70732457 334.31099635 186.875 337.8125 C190.64242809 343.89373663 194.54069548 349.8515227 198.6015625 355.7421875 C200 358 200 358 200 360 C200.66 360 201.32 360 202 360 C203.25731149 361.70053641 204.42930336 363.46435681 205.5625 365.25 C209.23259267 370.92012482 213.16989797 376.26936191 217.3125 381.6015625 C219 384 219 384 219 386 C219.66 386 220.32 386 221 386 C222.70522037 388.02903399 224.30091868 390.0604251 225.875 392.1875 C226.74697282 393.34797422 227.61936328 394.50813476 228.4921875 395.66796875 C228.91209961 396.23692871 229.33201172 396.80588867 229.76464844 397.39208984 C230.87581282 398.83836032 232.09305509 400.20162454 233.3203125 401.55078125 C235 404 235 404 235.71875 406.81640625 C234.58227872 411.85023285 231.18250818 414.48678089 227.5 417.9375 C226.80390625 418.61490234 226.1078125 419.29230469 225.390625 419.99023438 C221.28573889 423.95449013 217.04462937 427.73877305 212.73242188 431.47485352 C210.73203457 433.23590474 208.85091699 435.08297883 207 437 C203.6923405 440.35995452 200.24407974 443.48813887 196.6640625 446.5546875 C195.39833536 447.65402798 194.1854566 448.8145434 193 450 C190.375 449.625 190.375 449.625 188 449 C187.67 448.01 187.34 447.02 187 446 C185.68929221 445.28988218 184.35175862 444.62846707 183 444 C177.52092042 439.71189923 172.58891505 434.73787735 167.68359375 429.81640625 C167.02343765 429.15720688 166.36328156 428.49800751 165.68312073 427.8188324 C164.29964494 426.43603165 162.91740917 425.05198924 161.53637695 423.66674805 C159.44268331 421.56769657 157.34370126 419.4740406 155.24414062 417.38085938 C153.89030429 416.02636214 152.53677825 414.67155469 151.18359375 413.31640625 C150.56673203 412.70156876 149.9498703 412.08673126 149.3143158 411.45326233 C145.55996461 407.67899787 141.99335215 403.78589624 138.51635742 399.75447083 C135.91040499 396.73930603 133.19898479 393.81824909 130.50390625 390.8828125 C129 389 129 389 129 387 C128.40058594 386.74863281 127.80117188 386.49726563 127.18359375 386.23828125 C124.70637847 384.83349191 123.67039712 383.51694652 122.0625 381.1875 C119.67220138 377.74520365 116.96914958 374.95606963 114 372 C112.08083756 369.84919699 110.22601477 367.64702176 108.375 365.4375 C107.89804687 364.87353516 107.42109375 364.30957031 106.9296875 363.72851562 C100 355.49951172 100 355.49951172 100 353 C99.34 353 98.68 353 98 353 C96.22265625 351.0859375 96.22265625 351.0859375 94.0625 348.375 C93.25296875 347.364375 92.4434375 346.35375 91.609375 345.3125 C88.53858759 341.42437518 85.48634699 337.52156067 82.43969727 333.61450195 C79.29052317 329.59263254 76.06356784 325.64399554 72.79492188 321.71875 C67.6550171 315.54415275 62.60484755 309.32467399 57.8125 302.875 C57.36712891 302.28404541 56.92175781 301.69309082 56.46289062 301.08422852 C51.49479923 294.29173497 49.52684494 287.59100603 48.3125 279.375 C47.97022253 277.20398783 47.62490618 275.03345361 47.27734375 272.86328125 C47.07995605 271.62916504 46.88256836 270.39504883 46.67919922 269.12353516 C45.49651639 261.86119586 44.17692258 254.62201821 42.87957764 247.37948608 C42.00431984 242.49304472 41.13289583 237.60592031 40.26171875 232.71875 C40.07905457 231.69420212 39.89639038 230.66965424 39.70819092 229.61405945 C37.5096263 217.26792927 35.34987346 204.91500933 33.1875 192.5625 C29.54567995 171.76639522 25.87734629 150.97512626 22.1875 130.1875 C21.96274994 128.92108673 21.73799988 127.65467346 21.50643921 126.34988403 C18.62613266 110.12131037 18.62613266 110.12131037 15.72753906 93.89599609 C12.68254672 76.90405377 9.72048068 59.89895431 6.796875 42.88574219 C6.22756361 39.57469638 5.6570599 36.26385888 5.0859375 32.953125 C4.90601257 31.90797729 4.72608765 30.86282959 4.54071045 29.78601074 C3.2860844 22.53856938 1.93987524 15.31392552 0.50244141 8.10058594 C0.05299319 5.32702308 -0.10328568 2.80121289 0 0 Z " fill="#000000" transform="translate(201,83)"/>
<path d="M0 0 C-0.19007192 11.31791887 -1.66545091 22.39316238 -3.375 33.5625 C-3.48000824 34.25334686 -3.58501648 34.94419373 -3.69320679 35.65597534 C-4.92904789 43.73923492 -6.30526183 51.78276668 -7.83987427 59.8155365 C-9.27711765 67.37270846 -10.54036376 74.95827336 -11.81549072 82.54415894 C-14.1420668 96.36324956 -16.5487631 110.16282291 -19.125 123.9375 C-22.7282489 143.22433541 -26.11140913 162.54956343 -29.5 181.875 C-29.6429034 182.68980583 -29.78580681 183.50461166 -29.93304062 184.34410858 C-32.84704598 200.95991265 -35.75605103 217.5766 -38.65115356 234.19570923 C-39.34587571 238.18213513 -40.04349906 242.16798709 -40.75 246.15234375 C-41.0092182 247.61586707 -41.26833509 249.07940833 -41.52734375 250.54296875 C-41.65068085 251.23957611 -41.77401794 251.93618347 -41.90109253 252.65390015 C-42.68235497 257.09932686 -43.41674423 261.55057549 -44.12635803 266.00798035 C-44.61809492 269.07563707 -45.12942314 272.13985859 -45.64358521 275.2038269 C-45.87529403 276.61532828 -46.09802883 278.02834237 -46.31027222 279.44290161 C-47.69845037 288.68159365 -50.07505198 294.78709272 -56 302 C-56.79887275 303.11975888 -57.58843232 304.24629731 -58.36328125 305.3828125 C-59.00652344 306.28773438 -59.64976562 307.19265625 -60.3125 308.125 C-60.96863281 309.05570312 -61.62476563 309.98640625 -62.30078125 310.9453125 C-62.86152344 311.62335938 -63.42226563 312.30140625 -64 313 C-64.66 313 -65.32 313 -66 313 C-66.20753906 313.68191406 -66.41507813 314.36382812 -66.62890625 315.06640625 C-68.45608067 318.97583072 -71.05828708 321.75712803 -73.9375 324.9375 C-78.29016448 329.84387733 -82.50029173 334.80164098 -86.5 340 C-90.90273155 345.70212358 -95.53523714 351.16180299 -100.28271484 356.57910156 C-104.36628634 361.24358413 -108.31320651 365.99380433 -112.1953125 370.828125 C-112.79085937 371.54484375 -113.38640625 372.2615625 -114 373 C-114.70769531 373.92039062 -114.70769531 373.92039062 -115.4296875 374.859375 C-117 376 -117 376 -119.44140625 375.9296875 C-133.11727088 370.96044203 -145.10126535 346.09565317 -152.8203125 334.30078125 C-154.76076286 331.36228564 -156.76312982 328.48796135 -158.8125 325.625 C-166.86531617 314.11004672 -166.86531617 314.11004672 -167.1875 309.0625 C-165.76033538 305.38191757 -163.84238647 302.24423169 -161.74609375 298.90625 C-158.47440551 293.46075549 -155.79232179 287.70153147 -153 282 C-152.02279805 280.04068554 -151.04388386 278.08222317 -150.0625 276.125 C-149.66160156 275.32320313 -149.26070313 274.52140625 -148.84765625 273.6953125 C-148.56792969 273.13585937 -148.28820312 272.57640625 -148 272 C-147.34 272 -146.68 272 -146 272 C-145.90847656 271.31292969 -145.81695312 270.62585938 -145.72265625 269.91796875 C-144.84351556 266.36814121 -143.22404554 263.46545008 -141.4375 260.3125 C-138.33221691 254.67399659 -135.56321371 248.96652444 -133 243.0625 C-130.58014223 237.5010417 -128.07230749 232.02595969 -125.3125 226.625 C-116.03969834 208.39151811 -107.79959052 189.626182 -99.45654297 170.95336914 C-95.72062614 162.59455431 -91.94306037 154.26354692 -88 146 C-87.33701904 144.6085376 -87.33701904 144.6085376 -86.66064453 143.18896484 C-81.47087354 132.30784069 -76.26963882 121.43745752 -70.8203125 110.68359375 C-69.347525 107.74053204 -67.94670802 104.7672231 -66.5546875 101.78515625 C-60.67039946 89.21223768 -54.269955 77.12790358 -47.24951172 65.15429688 C-45.69078441 62.46687801 -44.21171811 59.74121662 -42.75 57 C-39.41997423 50.84332445 -35.75316555 44.90588711 -32 39 C-31.62891113 38.41202637 -31.25782227 37.82405273 -30.87548828 37.21826172 C-24.30152321 26.86308336 -16.89439122 17.37727109 -9 8 C-7.8553125 6.62134766 -7.8553125 6.62134766 -6.6875 5.21484375 C-2.27281746 0 -2.27281746 0 0 0 Z " fill="#000000" transform="translate(582,83)"/>
<path d="M0 0 C0.99 0 1.98 0 3 0 C9.88000704 19.00192422 15.81686978 38.26642722 21.59521484 57.62841797 C24.00513272 65.70158563 26.45010363 73.76286063 28.9375 81.8125 C31.77316784 90.9908655 34.57589142 100.17864452 37.35687256 109.37368774 C40.66027273 120.29541152 43.96904619 131.21545782 47.3125 142.125 C47.63669922 143.1871875 47.96089844 144.249375 48.29492188 145.34375 C49.87148968 150.47493963 51.52102448 155.55970008 53.33178711 160.61279297 C56.76053858 170.29647908 57.51252057 176.2141417 53.1875 185.6875 C52.19451479 187.70053291 51.18089591 189.7018307 50.15966797 191.70068359 C47.94337719 196.09500497 45.8619473 200.5548751 43.75 205 C42.79768955 206.98997334 41.84455388 208.97955197 40.890625 210.96875 C38.54629348 215.85934738 36.20492518 220.75135131 33.86547852 225.64428711 C32.95478497 227.54887898 32.04381468 229.45333855 31.13256836 231.35766602 C28.79881937 236.23505593 26.46864629 241.11410509 24.14453125 245.99609375 C8.65578783 278.51209191 8.65578783 278.51209191 2 289 C-1.69216651 285.76527005 -3.67639255 282.11637667 -5.75 277.75 C-6.45290915 276.30718649 -7.15604034 274.86448113 -7.859375 273.421875 C-8.21451172 272.68646484 -8.56964844 271.95105469 -8.93554688 271.19335938 C-10.59220086 267.77974025 -12.29744122 264.39088423 -14 261 C-14.67591199 259.64589858 -15.35169338 258.29173197 -16.02734375 256.9375 C-17.25882786 254.47333325 -18.50185733 252.01640434 -19.75390625 249.5625 C-24.89550393 239.43477411 -29.69739971 229.15408108 -34.49728394 218.86148071 C-38.12084422 211.09345591 -41.75065656 203.33468835 -45.625 195.6875 C-46.21539062 194.51703125 -46.80578125 193.3465625 -47.4140625 192.140625 C-47.93742187 191.10421875 -48.46078125 190.0678125 -49 189 C-50.01634458 186.98733732 -51.01778973 184.96703944 -52 182.9375 C-52.5878125 181.74447266 -52.5878125 181.74447266 -53.1875 180.52734375 C-55.08625414 174.62112295 -53.74714166 169.24797112 -51.80078125 163.5546875 C-51.33728675 162.13794589 -50.87458001 160.72094636 -50.41259766 159.30371094 C-50.17607483 158.58775757 -49.939552 157.8718042 -49.69586182 157.13415527 C-48.61390976 153.81589059 -47.60890687 150.47549464 -46.60546875 147.1328125 C-46.20788326 145.81669564 -45.81017697 144.50061526 -45.41235352 143.18457031 C-45.2128006 142.5231604 -45.01324768 141.86175049 -44.80764771 141.18029785 C-41.59299559 130.52627537 -38.35421455 119.88050731 -35.0625 109.25 C-32.03748574 99.47550508 -29.11629922 89.67232816 -26.21615601 79.86029053 C-22.53739597 67.41486676 -18.79582518 55.00163609 -14.78613281 42.65771484 C-12.2147579 34.7344161 -9.78181178 26.77377125 -7.43261719 18.78173828 C-2.6023169 2.6023169 -2.6023169 2.6023169 0 0 Z " fill="#000000" transform="translate(391,67)"/>
</svg>
